<svg xmlns="http://www.w3.org/2000/svg" width="24" height="24" viewBox="0 0 24 24"
     fill="#0aa8a7"> 
    <!-- Palette -->
    <path d="M17.75 4.5c-2.53 0-4.69 1.63-5.53 3.91-.94-.49-2.03-.76-3.22-.76-3.31 0-6 2.69-6 6s2.69 6 6 6c1.19 0 2.28-.27 3.22-.76.84 2.28 3 3.91 5.53 3.91 3.31 0 6-2.69 6-6s-2.69-6-6-6zm-1.25 8c-.69 0-1.25-.56-1.25-1.25s.56-1.25 1.25-1.25 1.25.56 1.25 1.25-.56 1.25-1.25 1.25zm-3.5-2c-.69 0-1.25-.56-1.25-1.25s.56-1.25 1.25-1.25 1.25.56 1.25 1.25-.56 1.25-1.25 1.25zm-3.5 2c-.69 0-1.25-.56-1.25-1.25s.56-1.25 1.25-1.25 1.25.56 1.25 1.25-.56 1.25-1.25 1.25z"/>
    <!-- Paintbrush -->
    <!-- Note: The paintbrush might look better if some parts are outlined or a different shade.
         For a single color fill, the transform and paths will just be filled.
         If you need distinct parts for the brush (e.g., handle vs. bristles),
         you'd need to separate them and apply colors individually or use stroke for some parts.
         Assuming the whole brush shape is to be filled with #0aa8a7 for now. -->
    <path d="M7.5 2.5L3 7v3h3l4.5-4.5L7.5 2.5zM6 8.5V10h1.5L10 7.5 8.5 6 6 8.5zM10.21 18.21c-.39.39-1.02.39-1.41 0l-4.5-4.5c-.39-.39-.39-1.02 0-1.41L8.21 8.5h3.58l-2.5 2.5 1.41 1.41 2.5-2.5V13.5l4.09-4.09c.39-.39 1.02-.39 1.41 0l1.79 1.79c.39.39.39 1.02 0 1.41L14.21 18.5h-4z" transform="rotate(45 12 12) translate(0, -6)"/>
</svg>