<svg xmlns="http://www.w3.org/2000/svg" width="24" height="24" viewBox="0 0 24 24"
     fill="#0aa8a7"    
     stroke="#0aa8a7"  
     stroke-width="1"
     stroke-linecap="round"
     stroke-linejoin="round">
  <path d="M20.42 4.58a2 2 0 0 0-1.42-.58H5A2 2 0 0 0 3 6v12a2 2 0 0 0 2 2h14a2 2 0 0 0 2-2v-5.5c0-.83-.34-1.58-.88-2.12S18.83 10 18 10c-.83 0-1.58.34-2.12.88S15 11.67 15 12.5V14h-1v-1.5c0-1.3.84-2.4 2-2.82V9a2 2 0 0 0-2-2H9.5a2.5 2.5 0 0 0-2.5 2.5V11h-1V9.5C6 8.17 6.84 7 8 6.58V5a2 2 0 0 0-2-2H4.58A1.992 1.992 0 0 0 3.17 4c-.53.53-.83 1.23-.83 1.95V6H3v12h.17c.53-.53 1.23-.83 1.95-.83H6v-1H4.5A2.5 2.5 0 0 0 2 18.5V20h1.5c1.3 0 2.4-.84 2.82-2H8a2 2 0 0 0 2 2h4.5c.83 0 1.58-.34 2.12-.88.54-.54.88-1.29.88-2.12V16h1v1.5c0 1.3-.84 2.4-2 2.82V21a2 2 0 0 0 2 2h1.42a2 2 0 0 0 1.42-.58 2 2 0 0 0 .58-1.42V6a2 2 0 0 0-.58-1.42zM12 10a2 2 0 1 1-4 0 2 2 0 0 1 4 0z"/>
</svg>