<svg xmlns="http://www.w3.org/2000/svg" width="24" height="24" viewBox="0 0 24 24" fill="#0aa8a7">
  <!-- Front Row -->
  <circle cx="6" cy="10" r="2"/>
  <rect x="4.5" y="11.5" width="3" height="3" rx="1"/>
  <circle cx="12" cy="10" r="2"/>
  <rect x="10.5" y="11.5" width="3" height="3" rx="1"/>
  <circle cx="18" cy="10" r="2"/>
  <rect x="16.5" y="11.5" width="3" height="3" rx="1"/>

  <!-- Back Row (smaller, suggesting distance) -->
  <circle cx="4" cy="16" r="1.5"/>
  <rect x="3" y="17" width="2" height="2.5" rx="0.5"/>
  <circle cx="9" cy="16" r="1.5"/>
  <rect x="8" y="17" width="2" height="2.5" rx="0.5"/>
  <circle cx="14" cy="16" r="1.5"/>
  <rect x="13" y="17" width="2" height="2.5" rx="0.5"/>
  <circle cx="19" cy="16" r="1.5"/>
  <rect x="18" y="17" width="2" height="2.5" rx="0.5"/>

  <!-- Suggestion of a board/screen at the front (optional) -->
  <rect x="2" y="3" width="20" height="4" rx="1" fill="none" stroke="#0aa8a7" stroke-width="1"/>
</svg>